<svg xmlns="http://www.w3.org/2000/svg" xmlns:xlink="http://www.w3.org/1999/xlink" viewBox="0 0 509 284"><defs><style>.cls-1{fill:none;}.cls-2{isolation:isolate;}.cls-3{fill:#212c41;}.cls-4{fill:#fff;}.cls-5{fill:#3e5578;}.cls-6{fill:#cadfee;}.cls-7{fill:#fbd7e3;}.cls-8{fill:#fef4f4;}.cls-9{fill:#fadaad;}.cls-10{fill:#f4b08d;}.cls-11{fill:#424242;}.cls-12{fill:#454a97;}.cls-13,.cls-18,.cls-19,.cls-25,.cls-26{fill:#f9ddc3;}.cls-14{fill:#dddce9;}.cls-15{fill:#1897d4;}.cls-16,.cls-33{fill:#f6bea0;}.cls-16{opacity:0.51;}.cls-17{fill:#f6d2b7;}.cls-18,.cls-26{opacity:0.5;}.cls-19{opacity:0.43;}.cls-19,.cls-20,.cls-26,.cls-32{mix-blend-mode:multiply;}.cls-21{fill:#e4e5e5;}.cls-22{clip-path:url(#clip-path);}.cls-23{opacity:0.2;mix-blend-mode:lighten;fill:url(#New_Gradient_Swatch_2);}.cls-24{opacity:0.21;fill:url(#New_Gradient_Swatch_2-2);}.cls-24,.cls-29{mix-blend-mode:overlay;}.cls-25{opacity:0.15;}.cls-27{fill:url(#linear-gradient);}.cls-28{fill:url(#linear-gradient-2);}.cls-29{fill:url(#linear-gradient-3);}.cls-30{fill:#010101;}.cls-31{fill:#3e3e3b;}.cls-32{fill:#babbbe;opacity:0.39;}.cls-34{fill:#e2a986;}.cls-35{fill:#d0d0dd;}.cls-36{fill:#242142;}.cls-37{fill:#2bc0d3;}.cls-38{fill:#ec272d;}.cls-39{fill:#a1c73a;}.cls-40{mix-blend-mode:luminosity;fill:url(#linear-gradient-4);}</style><clipPath id="clip-path"><path id="SVGID" class="cls-1" d="M243.26,119.18c0-.39,0-.78,0-1.17a4.05,4.05,0,0,0,0-.48.53.53,0,0,1,0-.22c0-.1.11-.19.14-.29a1.67,1.67,0,0,0,0-1.06,1,1,0,0,1-.13-.3,1.26,1.26,0,0,1,.07-.51.94.94,0,0,0,.11-.32c0-.15-.05-.19-.13-.29A1.64,1.64,0,0,1,243,114a5.31,5.31,0,0,1-.09-1c0-.55,0-1.11,0-1.66,0-.88,0-1.76,0-2.63a4,4,0,0,0-4.44-4.18s3-2.32-.19,0a15.23,15.23,0,0,1-7.46,2.46c-3.67-.35-4.67,4.81-4.83,5.93l0,2.75v1.08a12.94,12.94,0,0,0,.55,4c.12.41.26.81.42,1.21v0a13.07,13.07,0,0,0,2,3.16c6.78,6.63,11.32-.08,11.32-.08a11,11,0,0,0,2.92-4.51A6.37,6.37,0,0,0,243.26,119.18Z"/></clipPath><linearGradient id="New_Gradient_Swatch_2" x1="8711.47" y1="-638.83" x2="8706.01" y2="-639.06" gradientTransform="matrix(-0.98, 0.38, 0.39, 0.93, 9052.65, -2609.14)" gradientUnits="userSpaceOnUse"><stop offset="0" stop-color="#fff"/><stop offset="0.28" stop-color="#fff" stop-opacity="0.73"/><stop offset="0.94" stop-color="#fff" stop-opacity="0.07"/><stop offset="1" stop-color="#fff" stop-opacity="0"/></linearGradient><linearGradient id="New_Gradient_Swatch_2-2" x1="951.46" y1="4320.38" x2="946.53" y2="4320.17" gradientTransform="matrix(0.74, 0.67, -0.67, 0.74, 2434.63, -3718.67)" xlink:href="#New_Gradient_Swatch_2"/><linearGradient id="linear-gradient" x1="9676.38" y1="102.77" x2="9682.24" y2="106.24" gradientTransform="matrix(-0.98, 0.17, 0.17, 0.98, 9756.16, -1659.88)" gradientUnits="userSpaceOnUse"><stop offset="0" stop-color="#fad2a4"/><stop offset="0.02" stop-color="#fad2a4" stop-opacity="0.96"/><stop offset="0.18" stop-color="#fad2a4" stop-opacity="0.71"/><stop offset="0.34" stop-color="#fad2a4" stop-opacity="0.5"/><stop offset="0.49" stop-color="#fad2a4" stop-opacity="0.32"/><stop offset="0.64" stop-color="#fad2a4" stop-opacity="0.18"/><stop offset="0.77" stop-color="#fad2a4" stop-opacity="0.08"/><stop offset="0.9" stop-color="#fad2a4" stop-opacity="0.02"/><stop offset="1" stop-color="#fad2a4" stop-opacity="0"/></linearGradient><linearGradient id="linear-gradient-2" x1="191.68" y1="101.49" x2="197.54" y2="104.96" gradientTransform="translate(19.09 48.9) rotate(-9.95)" gradientUnits="userSpaceOnUse"><stop offset="0" stop-color="#fad2a4"/><stop offset="0.04" stop-color="#fad2a4" stop-opacity="0.93"/><stop offset="0.19" stop-color="#fad2a4" stop-opacity="0.69"/><stop offset="0.34" stop-color="#fad2a4" stop-opacity="0.48"/><stop offset="0.49" stop-color="#fad2a4" stop-opacity="0.31"/><stop offset="0.63" stop-color="#fad2a4" stop-opacity="0.17"/><stop offset="0.77" stop-color="#fad2a4" stop-opacity="0.08"/><stop offset="0.89" stop-color="#fad2a4" stop-opacity="0.02"/><stop offset="1" stop-color="#fad2a4" stop-opacity="0"/></linearGradient><linearGradient id="linear-gradient-3" x1="28.57" y1="1068.7" x2="26.22" y2="1068.6" gradientTransform="matrix(1, 0.03, -0.03, 1, 237.93, -952.62)" gradientUnits="userSpaceOnUse"><stop offset="0" stop-color="#e9c09b" stop-opacity="0"/><stop offset="1" stop-color="#efbdb3"/></linearGradient><linearGradient id="linear-gradient-4" x1="297.84" y1="-159.37" x2="297.38" y2="21.62" gradientTransform="matrix(0.93, 0.36, -0.36, 0.93, 0.87, 33.4)" gradientUnits="userSpaceOnUse"><stop offset="0" stop-color="#8fd6eb" stop-opacity="0"/><stop offset="0.4" stop-color="#8fd6eb" stop-opacity="0.01"/><stop offset="0.54" stop-color="#91d7eb" stop-opacity="0.04"/><stop offset="0.64" stop-color="#93d7ec" stop-opacity="0.09"/><stop offset="0.72" stop-color="#96d9ed" stop-opacity="0.16"/><stop offset="0.79" stop-color="#9adaed" stop-opacity="0.25"/><stop offset="0.82" stop-color="#9cdbee" stop-opacity="0.3"/><stop offset="0.85" stop-color="#9edcee" stop-opacity="0.34"/><stop offset="0.89" stop-color="#a2ddf0" stop-opacity="0.45"/><stop offset="0.95" stop-color="#a9dff2" stop-opacity="0.62"/><stop offset="1" stop-color="#b1e2f4" stop-opacity="0.8"/></linearGradient></defs><g class="cls-2"><g id="Layer_1" data-name="Layer 1"><path class="cls-3" d="M415.89,171.51c-15.84-19-46.1-21.77-65.11-37.89-20.59-17.45-25.95-42.12-43.63-62.28-7.38-8.41-15.79-20.32-25.82-25.82-9-5-18.79-9.28-29.64-10.12-13.59-1-28.36,3.74-39.62,12.85-11.08,9-19.06,21.94-31.91,28-16.13,7.58-33.46,2.15-49.22,1C112.52,76,93.4,86.2,87.14,103.41c-2.81,7.72-2.82,16.15-1.53,24.23s4.1,16.56,9.55,23.17c5.75,7,13.34,12.3,18.38,19.89,6,9,5.51,21.17,3.54,32.54s-5.25,22.9-4.27,34a41,41,0,0,0,28.76,35.3c20.44,6.36,44.33-1.65,66.05-9.92,19.44-7.4,41.9-16.07,62.2-14.69,21.41,1.47,39.06,15,59.4,19.54,26,5.77,57.64-2.48,77.62-23.16S432,190.86,415.89,171.51Z"/><path class="cls-4" d="M331.15,79.23V217.06a17.44,17.44,0,0,1-17.44,17.44H183.89a17.44,17.44,0,0,1-17.44-17.44V79.23A17.44,17.44,0,0,1,183.89,62H313.71A17.44,17.44,0,0,1,331.15,79.23Z"/><path class="cls-5" d="M331.15,79.23H166.45A17.44,17.44,0,0,1,183.89,62H313.71A17.44,17.44,0,0,1,331.15,79.23Z"/><path class="cls-4" d="M187.31,70.6a3.19,3.19,0,1,0-3.19,3.18A3.19,3.19,0,0,0,187.31,70.6Z"/><path class="cls-4" d="M197.19,70.6A3.19,3.19,0,1,0,194,73.78,3.19,3.19,0,0,0,197.19,70.6Z"/><path class="cls-4" d="M207.07,70.6a3.19,3.19,0,1,0-3.19,3.18A3.19,3.19,0,0,0,207.07,70.6Z"/><path class="cls-4" d="M280,73.78H219.93a3.18,3.18,0,0,1-3.19-3.18h0a3.19,3.19,0,0,1,3.19-3.19H280a3.18,3.18,0,0,1,3.18,3.19h0A3.18,3.18,0,0,1,280,73.78Z"/><path class="cls-6" d="M131.66,158.24l-.16.25-1.66-1,.16-.26C130.55,157.54,131.11,157.88,131.66,158.24Z"/><path class="cls-6" d="M143.39,173l-4.47,1.16h-.75a108.32,108.32,0,0,1-13.34-.7l-.59-.08.56-.2c1.18-.43,2.19-.85,3-1.25-1.18.37-2.89.87-4.6,1.27h-.06a32.87,32.87,0,0,1-11.16-4l-.37-.22.43-.06a46.8,46.8,0,0,0,6.71-1.3,45.46,45.46,0,0,1-8.36.57h0l0,0-.88-.58a13.41,13.41,0,0,1-2.93-2.46l-.23-.23.32,0a42.85,42.85,0,0,0,5.58-.77,58.54,58.54,0,0,1-6.46.19h-.06l0,0c-.36-.38-.89-.9-1.49-1.5-1.72-1.7-4.07-4-5.15-5.36l-.08-.1.08-.09c.09-.11,2.36-2.77,10-3.7H109l0,0c.46.34,1,.67,1.52,1,.72.46,1.48,1,2.26,1.54-.67-.65-1.54-1.47-2.65-2.46l-.25-.23.34,0c.68-.06,1.37-.14,2.1-.23a22.14,22.14,0,0,1,7.91,0h0l0,.05a13.39,13.39,0,0,1,.9,1.51c.38.71.87,1.6,1.68,2.85v0a7.58,7.58,0,0,1-.87-3.71l0-.17.16.05a42.43,42.43,0,0,1,7.7,3.51l.05,0,2.34,3.09L131.27,158l.44.28a28,28,0,0,1,9.24,9.35Zm-4.49.87L143,172.8l-2.29-5.05a27.42,27.42,0,0,0-8.71-8.94l1.8,3.89-4-5.26a42.43,42.43,0,0,0-7.45-3.41c-.16,1.95,2,5.49,2,5.53l-.25.16a41.18,41.18,0,0,1-3.07-4.89,14.86,14.86,0,0,0-.85-1.44,21.88,21.88,0,0,0-7.74,0c-.62.07-1.2.14-1.78.19a37.58,37.58,0,0,1,4.72,4.7l-.23.19a23.21,23.21,0,0,0-4.71-3.72c-.53-.34-1-.67-1.48-1-6.64.81-9.15,3-9.62,3.49,1.1,1.34,3.38,3.59,5,5.24l1.45,1.46a66.1,66.1,0,0,0,8-.35l1.35-.15-1.29.44a33.64,33.64,0,0,1-7,1.2,12.47,12.47,0,0,0,2.65,2.21l.85.55a53.22,53.22,0,0,0,9.91-.82l1.33-.23-1.25.51a37.13,37.13,0,0,1-7.93,1.81,32.46,32.46,0,0,0,10.65,3.78c3-.7,6.09-1.76,6.12-1.77l1.26-.43-1.14.7a23.27,23.27,0,0,1-4,1.85,115.86,115.86,0,0,0,12.71.62Z"/><path class="cls-6" d="M143.28,172.78l-.18.23c-12.35-9.38-37.86-13.93-38.11-14l.05-.29C105.3,158.78,130.87,163.35,143.28,172.78Z"/><path class="cls-7" d="M356.25,151.66c.22-.54.43-1.07.63-1.6Z"/><path class="cls-7" d="M353.78,153.44l3.1-3.4a38.3,38.3,0,0,0,1.86-7.22c-1.73,0-4.65,2.62-4.65,2.62,2.8-2.91,3.93-3.47,4.85-4.42.22-3-.95-6-1.61-8.65a34.32,34.32,0,0,1-3.45,5.06,31.25,31.25,0,0,0,3.14-6.18c-1.9-6.49-4.53-8-4.53-8-1.32,1.55-3.84,5.39-4.86,6.83a58.6,58.6,0,0,0,1.47,7A31.07,31.07,0,0,1,347,131a14,14,0,0,0-2,3.77,47.76,47.76,0,0,0,2.15,8.57,34.57,34.57,0,0,1-2.79-7,30,30,0,0,0-1.81,10.29c1.06,2.59,2.41,5.1,2.41,5.1a22.72,22.72,0,0,1-2.39-3.62A105.22,105.22,0,0,0,344,160.44l1.57,3.55,4.09-2.85a25.21,25.21,0,0,0,6.57-9.43Z"/><path class="cls-8" d="M348.62,155c-.32,1.35-.67,2.69-1.09,4a21.78,21.78,0,0,1-1.59,3.83l-.05,0a21.9,21.9,0,0,0,1.46-3.86c.38-1.33.69-2.68,1-4,.56-2.71,1-5.44,1.43-8.18s.8-5.49,1.35-8.21c.27-1.36.56-2.72.89-4.07s.71-2.69,1.16-4l.06,0c-.56,2.72-1,5.44-1.5,8.17s-1,5.45-1.46,8.18S349.25,152.25,348.62,155Z"/><path class="cls-6" d="M359,170.17c.39-.34.78-.69,1.14-1Z"/><path class="cls-6" d="M356.06,170.53l4.07-1.41a30.53,30.53,0,0,0,4.28-5.16c-1.6-.78-5.21,0-5.21,0,3.61-1.13,4.85-1.08,6-1.45,1.28-2.43,1.27-5.44,1.59-7.93a28.45,28.45,0,0,1-5,2.62,24.8,24.8,0,0,0,5.1-3.7c.57-6.27-1.31-8.76-1.31-8.76-1.77.68-5.46,2.72-6.91,3.45a50.14,50.14,0,0,0-1.14,6.52,26.77,26.77,0,0,1,.25-6.05,11.62,11.62,0,0,0-3.21,2.21,41.66,41.66,0,0,0-1.07,8.12,31.32,31.32,0,0,1-.08-7.09,23.48,23.48,0,0,0-5.33,7.74c.05,2.64.4,5.35.4,5.35a22.26,22.26,0,0,1-.91-4.11,84.78,84.78,0,0,0-3.08,11l.19,3.67,4.77-.5a21,21,0,0,0,9.41-4.84Z"/><path class="cls-8" d="M350.77,169.42c-.77,1-1.58,1.94-2.44,2.84a17.06,17.06,0,0,1-2.83,2.47l0,0a17.76,17.76,0,0,0,2.73-2.54c.82-.94,1.59-1.91,2.33-2.91,1.48-2,2.86-4.08,4.23-6.16s2.69-4.2,4.16-6.21c.74-1,1.49-2,2.28-3s1.61-1.91,2.49-2.81l.05.05c-1.48,2-2.9,4-4.29,6.11s-2.84,4.09-4.26,6.14S352.32,167.46,350.77,169.42Z"/><path class="cls-6" d="M355.94,182.9c4.26,1.45,5.95,2.35,7.48,2.47A29.15,29.15,0,0,0,370,178c-5.58.85-8.77-.87-8.77-.87,3.51,1,7.48.25,9.47-.27a42.55,42.55,0,0,0,5-13.42,64.28,64.28,0,0,0-6.52.21,65,65,0,0,0-4.73,6.74,34.67,34.67,0,0,1,3.48-6.62,41,41,0,0,0-7.83,1.57c-2.5,2.8-5.48,8.56-5.48,8.56a38.81,38.81,0,0,1,3.64-7.92,31.27,31.27,0,0,0-10.07,6.24c-1.33,3-2.37,6.13-2.37,6.13a27.18,27.18,0,0,1,1.14-5,111.07,111.07,0,0,0-9.23,10.82L336,188.37l5.63,1.57c8.71,1.57,15.26-.17,20.16-3.38C360.36,185,355.94,182.9,355.94,182.9Z"/><path class="cls-6" d="M337.22,187.73a23.24,23.24,0,0,0,4.4-1.62c1.42-.67,2.8-1.41,4.15-2.2,2.72-1.55,5.37-3.25,8-4.95s5.23-3.48,8-5.07c1.36-.79,2.73-1.57,4.13-2.29s2.82-1.41,4.28-2l0,.07c-2.72,1.57-5.39,3.21-8,4.88s-5.35,3.29-8,4.93-5.37,3.28-8.14,4.78c-1.39.74-2.8,1.44-4.25,2.07a22.63,22.63,0,0,1-4.48,1.48Z"/><path class="cls-7" d="M152.75,133.41c-.09-.7-.21-1.39-.33-2.07Z"/><path class="cls-7" d="M151.14,136.88l1.27-5.57a43,43,0,0,0-2.6-8.69c-1.94,1.16-3.53,5.78-3.53,5.78,1.26-4.86,2.17-6.19,2.59-7.77-1.73-3.29-5-5.6-7.44-7.88-.18,6.06-.6,7.51-.6,7.51.42-3.57-.3-6.26-.47-8.47C134,106.33,130,106.48,130,106.48c-.49,2.47-.83,8.11-1,10.27a68.8,68.8,0,0,0,6.23,6.3,37.66,37.66,0,0,1-6.34-5,16.39,16.39,0,0,0,.17,5.23c2.47,3.19,8,7.44,8,7.44a42.15,42.15,0,0,1-7.67-5.37A33.62,33.62,0,0,0,134,137.24c2.87,2,6,3.68,6,3.68a28.6,28.6,0,0,1-5-2.16,119.21,119.21,0,0,0,9.65,11.83l4.08,2.63,2.74-5.65a29.44,29.44,0,0,0,1.27-14.1Z"/><path class="cls-6" d="M146.31,141.86c.52,1.61,1,3.24,1.38,4.88a25.84,25.84,0,0,1,.71,5h-.08a24.77,24.77,0,0,0-.87-5c-.43-1.62-1-3.22-1.53-4.81-1.12-3.17-2.4-6.29-3.7-9.41s-2.67-6.2-3.82-9.38c-.58-1.59-1.14-3.18-1.64-4.8s-.95-3.25-1.3-4.91l.08,0c1.14,3.18,2.36,6.31,3.62,9.44s2.44,6.28,3.67,9.43S145.26,138.65,146.31,141.86Z"/><path class="cls-6" d="M137.23,145.43c1.4-5.87,2.39-8.25,2.36-10.3a39.12,39.12,0,0,0-10.65-7.85c1.83,7.36-.06,11.84-.06,11.84.91-4.82-.6-10-1.55-12.63a57.25,57.25,0,0,0-18.57-5,86.5,86.5,0,0,0,1.09,8.69,87.73,87.73,0,0,0,9.62,5.48,46.84,46.84,0,0,1-9.3-3.82,54.53,54.53,0,0,0,3.1,10.26c4,3,12.13,6.27,12.13,6.27-3.47-.58-8.37-2.66-11.05-3.88a42.06,42.06,0,0,0,9.6,12.68c4.12,1.41,8.49,2.4,8.49,2.4a36.38,36.38,0,0,1-6.8-.9c4.52,3.85,9.79,7.21,15.62,11l5.79,1.8,1.4-7.73c1-11.85-2.15-20.38-7-26.53C139.45,139.26,137.23,145.43,137.23,145.43Z"/><path class="cls-6" d="M146,169.86a31.52,31.52,0,0,0-2.72-5.68c-1.07-1.81-2.24-3.56-3.46-5.28-2.42-3.44-5-6.76-7.63-10.08s-5.31-6.56-7.77-10c-1.23-1.72-2.44-3.45-3.59-5.23s-2.24-3.6-3.22-5.47l.08-.05c2.45,3.44,5,6.8,7.55,10.14s5.06,6.74,7.6,10.11,5.05,6.78,7.4,10.29c1.17,1.76,2.29,3.56,3.31,5.42a30.83,30.83,0,0,1,2.54,5.8Z"/><path class="cls-6" d="M175.81,32.88c-2.3-4.31-3.53-6-3.95-7.57a27.07,27.07,0,0,1,6.07-7.84c.25,6,2.6,9.14,2.6,9.14a21.48,21.48,0,0,1-1.6-10A39.13,39.13,0,0,1,191.4,9.64c.5,2.47.85,4.77,1.08,6.91a59.43,59.43,0,0,1-5.83,5.83,31.85,31.85,0,0,0,6-4.5,45.63,45.63,0,0,1,0,8.46c-2.31,3-7.5,6.86-7.5,6.86a35.65,35.65,0,0,0,7.22-4.84A31.44,31.44,0,0,1,188,39.77,65.3,65.3,0,0,1,182.36,43a24.07,24.07,0,0,0,4.76-1.83,104.42,104.42,0,0,1-9,11.1l-3.84,2.35-2.69-5.75c-3.29-9-2.84-16.11-.59-21.68C172.85,28.48,175.81,32.88,175.81,32.88Z"/><path class="cls-6" d="M174.66,53.24a24.5,24.5,0,0,1,.75-4.85c.39-1.58.87-3.13,1.39-4.66,1-3.06,2.2-6.06,3.38-9.06s2.46-6,3.51-9c.53-1.53,1-3.07,1.49-4.64s.85-3.15,1.17-4.76l-.08,0c-1,3.07-2.16,6.09-3.31,9.1s-2.23,6.05-3.36,9.08-2.22,6.08-3.17,9.19c-.47,1.56-.9,3.13-1.25,4.74a25.07,25.07,0,0,0-.6,4.91Z"/><path class="cls-6" d="M168.73,73l1.81-8c1.68-10.72.8-19.45-2.62-26l-.14-.27-.18.24a27.5,27.5,0,0,0-2.43,4.87l.42-1.44a29.32,29.32,0,0,0,1.23-5.21v-.07l0,0a22.52,22.52,0,0,0-7.07-6.94l-.32-.2,0,.38a32.34,32.34,0,0,1-.22,7.73,36.85,36.85,0,0,0-.5-8.42l0-.09-.08,0a28.24,28.24,0,0,0-13.16-3.34h-.18v.18c-.11,3.05-.12,5.94,0,8.58V35l.06.06a41,41,0,0,0,5.29,3.88,28.78,28.78,0,0,1-5-2.56l-.31-.19,0,.36a62.86,62.86,0,0,0,1.27,10v0l0,0a31.15,31.15,0,0,0,7,4.58,31.31,31.31,0,0,1-6.22-2.6l-.39-.21.11.43A33.13,33.13,0,0,0,153,60.65l0,0,.05,0A42.65,42.65,0,0,0,157.62,62a24.38,24.38,0,0,1-3.39-.35l-.51-.09.34.4a79.59,79.59,0,0,0,9.79,9.11l.63.51Zm-1-33.54c3.25,6.41,4.07,15,2.44,25.44l-1.72,7.62-3.82-1.2-.54-.45a83.09,83.09,0,0,1-9.4-8.67,16.9,16.9,0,0,0,4.41.2l1.22-.14L159.11,62a46.78,46.78,0,0,1-5.88-1.61,32.43,32.43,0,0,1-5.6-11.26,24.26,24.26,0,0,0,7.36,2.7l1.18.13-1.08-.49c-.05,0-5.52-2.53-8.15-5.09a61.12,61.12,0,0,1-1.23-9.51,22,22,0,0,0,6.16,2.81l1.16.24-1-.59a45.91,45.91,0,0,1-6.39-4.53c-.09-2.56-.08-5.35,0-8.3a28,28,0,0,1,12.71,3.25A32.53,32.53,0,0,1,158.26,42l.36.12a28.75,28.75,0,0,0,1.22-11.52,22.19,22.19,0,0,1,6.6,6.56,29.68,29.68,0,0,1-1.22,5.07c-.4,1.4-.9,3.13-1.48,5.32l.36.11C164.13,47.62,166.17,41.79,167.73,39.41Z"/><path class="cls-6" d="M166.61,68.65l.19-.1,0-.13a31.43,31.43,0,0,0-1.31-5.59c-.5-1.59-1.11-3.21-1.89-5.12-1.35-3.23-2.8-6.26-4.42-9.61l-1.59-3.29c-1-2-2-4.11-3-6.13-1.36-2.72-3-6-4.52-9.43l-.35.15c1.56,3.47,3.17,6.72,4.53,9.45,1,2,2,4.11,3,6.13.53,1.09,1.05,2.19,1.59,3.28,1.61,3.35,3.06,6.38,4.41,9.59.78,1.9,1.38,3.52,1.88,5.09a31.67,31.67,0,0,1,1.3,5.53h.1Z"/><path class="cls-4" d="M133.48,59.84a.21.21,0,0,1-.15,0,.19.19,0,0,1,0-.26q.56-.75,1.08-1.5a.19.19,0,1,1,.3.22q-.53.75-1.08,1.5A.19.19,0,0,1,133.48,59.84Zm2.14-3a.21.21,0,0,1-.15,0,.18.18,0,0,1,0-.25c.34-.51.69-1,1-1.54a.19.19,0,0,1,.25,0,.18.18,0,0,1,0,.26c-.34.51-.68,1-1,1.54A.19.19,0,0,1,135.62,56.82Zm2-3.08a.17.17,0,0,1-.14,0,.18.18,0,0,1-.06-.25c.33-.52.66-1,1-1.57a.19.19,0,0,1,.26-.06.2.2,0,0,1,.06.26l-1,1.57A.18.18,0,0,1,137.66,53.74Zm1.94-3.15a.17.17,0,0,1-.14,0,.17.17,0,0,1-.06-.25c.31-.53.62-1.06.92-1.59a.19.19,0,0,1,.26-.07.18.18,0,0,1,.06.25c-.3.53-.61,1.07-.93,1.6A.16.16,0,0,1,139.6,50.59Zm1.83-3.22a.2.2,0,0,1-.13,0,.21.21,0,0,1-.08-.26c.3-.54.59-1.08.88-1.62a.19.19,0,0,1,.25-.08.19.19,0,0,1,.08.25c-.29.55-.58,1.09-.88,1.63A.18.18,0,0,1,141.43,47.37Zm1.72-3.27a.13.13,0,0,1-.12,0,.18.18,0,0,1-.09-.24l0,0-1.25.26a.19.19,0,0,1-.07-.37l1.53-.31c.2-.4.4-.8.59-1.2a.2.2,0,0,1,.25-.09.19.19,0,0,1,.08.25c-.16.34-.32.67-.49,1a.21.21,0,0,1,.07.11.19.19,0,0,1-.14.22l-.1,0-.16.3A.17.17,0,0,1,143.15,44.1Zm2.18-.83a.18.18,0,0,1-.08-.36l1.79-.44a.17.17,0,0,1,.22.13.17.17,0,0,1-.13.22l-1.8.45Zm3.58-.92a.2.2,0,0,1-.22-.13.19.19,0,0,1,.13-.23l1.78-.5a.17.17,0,0,1,.23.12.19.19,0,0,1-.13.23l-1.78.51Zm-9,2h0l-1.82.31a.19.19,0,0,1-.22-.15.2.2,0,0,1,.16-.22c.6-.09,1.21-.2,1.82-.31a.19.19,0,0,1,.21.15A.18.18,0,0,1,139.9,44.4Zm12.56-3.1a.19.19,0,0,1-.22-.12.19.19,0,0,1,.12-.23l1.76-.57a.17.17,0,0,1,.23.11.19.19,0,0,1-.11.24l-1.77.57ZM136.25,45h0l-1.84.24a.2.2,0,0,1-.21-.16.19.19,0,0,1,.16-.21q.92-.11,1.83-.24a.19.19,0,0,1,.21.16A.18.18,0,0,1,136.25,45ZM156,40.13a.19.19,0,0,1-.22-.12.2.2,0,0,1,.11-.24l1.74-.63a.17.17,0,0,1,.23.11.17.17,0,0,1-.1.23l-1.74.64Zm-23.39,5.3h0c-.68.07-1.28.11-1.86.13a.19.19,0,0,1-.19-.18.17.17,0,0,1,.18-.19c.57,0,1.17-.06,1.83-.13a.19.19,0,0,1,.2.17A.19.19,0,0,1,132.58,45.43Zm26.85-6.61a.19.19,0,0,1-.22-.11.19.19,0,0,1,.11-.24l1.71-.7a.18.18,0,0,1,.24.1.19.19,0,0,1-.1.24l-1.72.7Zm-30.55,6.72h0a13,13,0,0,1-1.86-.21.18.18,0,0,1-.14-.22A.17.17,0,0,1,127,45a13.91,13.91,0,0,0,1.81.2.19.19,0,0,1,0,.37Zm34-8.15a.18.18,0,0,1-.21-.11.19.19,0,0,1,.1-.24l1.68-.76a.19.19,0,0,1,.25.09.18.18,0,0,1-.09.24l-1.69.77Zm-18.07,3.38a.25.25,0,0,1-.12,0,.2.2,0,0,1-.09-.25c.26-.56.51-1.12.76-1.68a.18.18,0,0,1,.24-.1.18.18,0,0,1,.09.25c-.24.56-.5,1.12-.76,1.69A.17.17,0,0,1,144.76,40.77Zm21.43-4.94a.19.19,0,0,1-.12-.35l.39-.2a.2.2,0,0,1,.25.09.19.19,0,0,1-.08.25l-.4.19Zm-40.91,9a.17.17,0,0,1-.12,0,6.33,6.33,0,0,1-1.62-1,.19.19,0,0,1,0-.27.2.2,0,0,1,.26,0,5.51,5.51,0,0,0,1.53.92.19.19,0,0,1,.1.24A.2.2,0,0,1,125.28,44.81Zm21-7.43a.14.14,0,0,1-.11,0,.18.18,0,0,1-.1-.24c.25-.62.46-1.18.63-1.72a.18.18,0,0,1,.23-.12.18.18,0,0,1,.12.23c-.17.55-.38,1.12-.64,1.75A.16.16,0,0,1,146.24,37.38Zm-23.69,5a.18.18,0,0,1-.21-.09,5.59,5.59,0,0,1-.5-1.35c0-.15-.06-.31-.08-.46a.19.19,0,0,1,.15-.21.18.18,0,0,1,.21.16c0,.14,0,.28.08.43a5.44,5.44,0,0,0,.47,1.26.19.19,0,0,1-.08.25Zm24.78-8.57h-.07a.19.19,0,0,1-.15-.22,8.87,8.87,0,0,0,.14-1.8.17.17,0,0,1,.17-.19.2.2,0,0,1,.2.18,9,9,0,0,1-.15,1.88A.19.19,0,0,1,147.33,33.86Zm-25.35,5h-.06a.17.17,0,0,1-.16-.21,7.82,7.82,0,0,1,.49-1.82.17.17,0,0,1,.24-.1.18.18,0,0,1,.1.24,8,8,0,0,0-.47,1.74A.18.18,0,0,1,122,38.84Zm25.12-8.63a.18.18,0,0,1-.21-.11,4.43,4.43,0,0,0-.91-1.41l-.06-.06a.18.18,0,0,1,.26-.26l.07.07a4.56,4.56,0,0,1,1,1.52.17.17,0,0,1-.1.24Zm-23.8,5.2a.22.22,0,0,1-.14,0,.18.18,0,0,1-.06-.26,11.83,11.83,0,0,1,1.11-1.5.18.18,0,1,1,.28.24,12.2,12.2,0,0,0-1.08,1.46A.21.21,0,0,1,123.3,35.41Zm2.39-2.8a.17.17,0,0,1-.18-.06.19.19,0,0,1,0-.26l.17-.14c.4-.35.84-.69,1.3-1a.18.18,0,0,1,.25.05.19.19,0,0,1,0,.26,14.28,14.28,0,0,0-1.27,1l-.16.14A.18.18,0,0,1,125.69,32.61Zm18.89-5a.25.25,0,0,1-.12,0,7,7,0,0,0-1.71-.55.18.18,0,0,1-.14-.22.18.18,0,0,1,.21-.15,7.76,7.76,0,0,1,1.8.58.2.2,0,0,1,.09.25A.19.19,0,0,1,144.58,27.63ZM128.7,30.47a.18.18,0,0,1-.13-.34c.52-.3,1.07-.6,1.64-.87a.19.19,0,0,1,.25.08.2.2,0,0,1-.09.25c-.56.27-1.11.56-1.62.86ZM141,26.87h0a16.44,16.44,0,0,0-1.83.07.18.18,0,0,1-.2-.16.18.18,0,0,1,.16-.21,17.24,17.24,0,0,1,1.87-.07.18.18,0,0,1,.18.19A.16.16,0,0,1,141,26.87Zm-9,2a.18.18,0,0,1-.21-.11.19.19,0,0,1,.1-.24c.55-.22,1.14-.44,1.74-.65a.18.18,0,0,1,.24.11.19.19,0,0,1-.12.24c-.59.2-1.17.42-1.72.64Zm3.5-1.21a.18.18,0,0,1-.22-.13.19.19,0,0,1,.13-.23c.61-.17,1.21-.31,1.81-.42a.18.18,0,0,1,.22.14.21.21,0,0,1-.14.22h0c-.59.11-1.18.25-1.79.42Z"/><polygon class="cls-4" points="180.53 26.61 167.45 31.16 169.28 35.88 180.53 26.61"/><polygon class="cls-4" points="180.53 26.61 169.82 32.06 169.28 35.88 180.53 26.61"/><polygon class="cls-4" points="180.53 26.61 163.72 28.91 167.45 31.16 180.53 26.61"/><polygon class="cls-4" points="180.53 26.61 169.82 32.06 174.48 34.42 180.53 26.61"/><path class="cls-7" d="M219.62,97.68c-3.23,0-4.5,1.33-4.5,4.21,0,.26-.51.26-.51,0,0-2.88-1-4.21-4.5-4.21-.26,0-.26-.5,0-.5,3.59,0,4.5-1.67,4.5-4.2,0-.27.51-.27.51,0,0,3,1.22,4.2,4.5,4.2C219.88,97.18,219.88,97.68,219.62,97.68Z"/><path class="cls-7" d="M312.79,114.65c-3.23,0-4.5,1.34-4.5,4.21,0,.26-.51.26-.51,0,0-2.87-1-4.21-4.5-4.21-.26,0-.26-.5,0-.5,3.59,0,4.5-1.66,4.5-4.2,0-.26.51-.26.51,0,0,3,1.22,4.2,4.5,4.2C313.05,114.15,313.05,114.65,312.79,114.65Z"/><path class="cls-6" d="M367.82,110.69c-2.78,0-3.88,1.15-3.88,3.62,0,.23-.43.23-.43,0,0-2.47-.88-3.62-3.87-3.62-.23,0-.23-.43,0-.43,3.09,0,3.87-1.43,3.87-3.61,0-.23.43-.23.43,0,0,2.6,1.06,3.61,3.88,3.61C368,110.26,368,110.69,367.82,110.69Z"/><path class="cls-6" d="M350.88,88.62c-3.68,0-5.13,1.52-5.13,4.79,0,.3-.58.3-.58,0,0-3.27-1.16-4.79-5.13-4.79-.3,0-.3-.58,0-.58,4.09,0,5.13-1.89,5.13-4.78,0-.3.58-.3.58,0,0,3.44,1.39,4.78,5.13,4.78C351.18,88,351.18,88.62,350.88,88.62Z"/><path class="cls-6" d="M376.61,68.52c-6.49,0-9.05,2.68-9.05,8.45,0,.53-1,.53-1,0,0-5.77-2.05-8.45-9.05-8.45-.52,0-.52-1,0-1,7.22,0,9.05-3.34,9.05-8.43,0-.53,1-.53,1,0,0,6.07,2.46,8.43,9.05,8.43C377.13,67.51,377.13,68.52,376.61,68.52Z"/><path class="cls-9" d="M224.29,257.16c.8-1.12,4.53-2.75,6.15-3.42l-1.87-13.37a2.58,2.58,0,0,1,5.11-.72l2.22,15.9a2.62,2.62,0,0,1,0,.79l.08,0,.14,1.9-10.79.8S223.26,258.61,224.29,257.16Zm22.33-17,2.4,20.62a2.58,2.58,0,0,0,2.75,2.27h.11a2.57,2.57,0,0,0,2.26-2.86l-2.4-20.61a2.58,2.58,0,1,0-5.12.59Z"/><path class="cls-10" d="M248.88,237.3a2.58,2.58,0,0,1,2.86,2.27l1.26,10.8-5.41-1.83h0l-1-8.38A2.58,2.58,0,0,1,248.88,237.3Z"/><path class="cls-10" d="M234.88,248.25l-5.57-2.56-.74-5.32a2.58,2.58,0,0,1,5.11-.72Z"/><path class="cls-11" d="M246.48,266.31s-.52-6.21,5-6.62,6.37,6.62,6.37,6.62Z"/><path class="cls-11" d="M236.19,258l-5,.13-2,.05-.76-4s-6.56.52-6.43,5.37l14.25-.37Z"/><polygon class="cls-12" points="246.11 185.68 255.1 246.86 244.53 247.7 234.2 188.36 234.2 188.36 235.73 244.53 225.78 244.91 220.72 187.04 246.11 185.68"/><path class="cls-13" d="M234.34,136.22a4,4,0,0,0,3.72-3.79l.37-6.6a4,4,0,1,0-8-.45L230,132c-.13,2.22.51,5.88,2.73,6C232.93,138,234.17,136.23,234.34,136.22Z"/><path class="cls-14" d="M226.39,131.82s-6.53.75-8.26,3.58-.33,53.11-.33,53.11,15.46,7.64,32.38,1.57c0,0-1-55-2.32-56.18s-6.13-1.91-6.13-1.91L234,134.94Z"/><polygon class="cls-4" points="229.5 130.78 226.39 131.82 230.07 140.03 233.99 134.94 229.5 130.78"/><polygon class="cls-4" points="233.99 134.94 237.85 140.03 241.73 131.99 238.78 130.78 233.99 134.94"/><path class="cls-4" d="M231.74,144.27a.13.13,0,1,1-.11-.13A.12.12,0,0,1,231.74,144.27Z"/><path class="cls-4" d="M231.54,146.72a.12.12,0,0,1-.14.1.12.12,0,0,1-.11-.13.13.13,0,1,1,.25,0Z"/><path class="cls-4" d="M231.34,149.16a.12.12,0,0,1-.13.11.13.13,0,1,1,.13-.11Z"/><path class="cls-4" d="M231.89,141.72a.13.13,0,1,1-.11-.14A.12.12,0,0,1,231.89,141.72Z"/><path class="cls-4" d="M232.12,139.58a.12.12,0,0,1-.13.11.13.13,0,1,1,.13-.11Z"/><line class="cls-15" x1="232.39" y1="138.19" x2="231.68" y2="152.04"/><rect class="cls-4" x="225.1" y="145.08" width="13.86" height="0.08" transform="translate(75.13 369.34) rotate(-87.04)"/><line class="cls-15" x1="231.44" y1="138.17" x2="230.73" y2="151.86"/><rect class="cls-4" x="224.24" y="144.98" width="13.7" height="0.08" transform="translate(74.28 368.27) rotate(-87.03)"/><path class="cls-16" d="M230.39,125.38l-.08.26c2.47,1.39,1.93,4.44,7.86,4.85l.27-6.14c-2.28-.21-5.22-.54-7.48-.81A3.94,3.94,0,0,0,230.39,125.38Z"/><path class="cls-4" d="M231.74,144.27a.13.13,0,1,1-.11-.13A.12.12,0,0,1,231.74,144.27Z"/><path class="cls-4" d="M231.54,146.72a.12.12,0,0,1-.14.1.12.12,0,0,1-.11-.13.13.13,0,1,1,.25,0Z"/><path class="cls-4" d="M231.34,149.16a.12.12,0,0,1-.13.11.13.13,0,1,1,.13-.11Z"/><path class="cls-4" d="M231.89,141.72a.13.13,0,1,1-.11-.14A.12.12,0,0,1,231.89,141.72Z"/><path class="cls-4" d="M232.12,139.58a.12.12,0,0,1-.13.11.13.13,0,1,1,.13-.11Z"/><line class="cls-15" x1="232.39" y1="138.19" x2="231.68" y2="152.04"/><rect class="cls-4" x="225.1" y="145.08" width="13.86" height="0.08" transform="translate(75.13 369.34) rotate(-87.04)"/><line class="cls-15" x1="231.44" y1="138.17" x2="230.73" y2="151.86"/><rect class="cls-4" x="224.24" y="144.98" width="13.7" height="0.08" transform="translate(74.28 368.27) rotate(-87.03)"/><path class="cls-17" d="M243.26,119.18c0-.39,0-.78,0-1.17a4.05,4.05,0,0,0,0-.48.53.53,0,0,1,0-.22c0-.1.11-.19.14-.29a1.67,1.67,0,0,0,0-1.06,1,1,0,0,1-.13-.3,1.26,1.26,0,0,1,.07-.51.94.94,0,0,0,.11-.32c0-.15-.05-.19-.13-.29A1.64,1.64,0,0,1,243,114a5.31,5.31,0,0,1-.09-1c0-.55,0-1.11,0-1.66,0-.88,0-1.76,0-2.63a4,4,0,0,0-4.44-4.18s3-2.32-.19,0a15.23,15.23,0,0,1-7.46,2.46c-3.67-.35-4.67,4.81-4.83,5.93l0,2.75v1.08a12.94,12.94,0,0,0,.55,4c.12.41.26.81.42,1.21v0a13.07,13.07,0,0,0,2,3.16c6.78,6.63,11.32-.08,11.32-.08a11,11,0,0,0,2.92-4.51A6.37,6.37,0,0,0,243.26,119.18Z"/><path class="cls-13" d="M243.14,115.85l.06.11s0,0,0,0,0-.2,0-.26Z"/><path class="cls-18" d="M243.46,115.52l-.19.16v.06l.21-.2Z"/><path class="cls-13" d="M246.24,114.44c-.61-1-1.66.06-2.77,1.1l-.21.2c0,.06,0,.14,0,.26a.75.75,0,0,1,0,.16l0,.67a1.46,1.46,0,0,1,0,.2c0,.1-.11.19-.13.29a.46.46,0,0,0,0,.23,5.27,5.27,0,0,1,0,.56v.27c-.06.76-.14,1.45-.23,2h0l.24,0a3.24,3.24,0,0,0,.9-.28c1.06-.52.95-1.26,1.66-2.41A3.53,3.53,0,0,0,246.24,114.44Z"/><path id="Element" class="cls-19" d="M243.8,116.57c1.15-1,2-2.33,2.25-1.43s-.17.9-.24.69c-.21-.67-.54-.2-1,.15A5.28,5.28,0,0,1,243.8,116.57Z"/><path class="cls-19" d="M243.67,118.12s1.14.15,1.25-.59c0,0,.13-.58-.16-.52s-.36.56-.57.73S243.67,118.12,243.67,118.12Z"/><g class="cls-20"><path class="cls-21" d="M226.08,121.28v0Z"/></g><g class="cls-22"><path class="cls-23" d="M224.14,107.31a4.9,4.9,0,0,0-.7,3.78,9.87,9.87,0,0,0,1,2.63c.62,1,1,0,1.75-.39s2.67-.52,2.31.8c-.27,1-1.79.91-2.16,1.9a4.29,4.29,0,0,0-.17,2,3,3,0,0,0,.3,1.07c.61,1,1.66-.09,2.45,0,3.45.5.5,4.28,1.08,6.19.2.74,1.61.5,2.46.65a2.89,2.89,0,0,1,.66.17,5.74,5.74,0,0,0,.8.12,3.12,3.12,0,0,0,2.28-.73,4.18,4.18,0,0,1,.92-.52.93.93,0,0,1,0,.76c-.46.65-1.36.59-1.93,1-.82.63.4,1,.62,1.49a18.59,18.59,0,0,1-2-.54q-.5-.17-1-.36a8.34,8.34,0,0,1-1.17-.29c-3.46-.83-5-4.29-5.62-7.29-.1-.28-.2-.56-.29-.84-.28-.85-.5-1.72-.69-2.51a31.34,31.34,0,0,0-1.78-4.25,4.48,4.48,0,0,1,1-4.86"/><path class="cls-24" d="M246.86,113.34a4.66,4.66,0,0,1-.64,3.4,9.43,9.43,0,0,1-1.62,1.93c-.8.65-.8-.29-1.28-.83s-2-1.21-2.11,0c-.1.93,1.15,1.28,1.14,2.23a4.12,4.12,0,0,1-.51,1.74,3.06,3.06,0,0,1-.58.82c-.81.69-1.3-.56-2-.7-2.93-.58-1.76,3.47-2.83,4.91-.4.56-1.45,0-2.18-.16a2.48,2.48,0,0,0-.59,0,3.14,3.14,0,0,1-.68-.13,2.51,2.51,0,0,1-1.59-1.27,3.6,3.6,0,0,0-.58-.7.83.83,0,0,0-.21.64c.16.69.9.89,1.22,1.42.47.76-.62.69-1,1.07a15.42,15.42,0,0,0,1.81.13c.3,0,.61,0,.91,0a6.19,6.19,0,0,0,1,.1c3,.3,5.39-2.18,6.83-4.54.17-.2.34-.41.5-.62.49-.64.95-1.31,1.35-1.92a27.91,27.91,0,0,1,2.79-3.08,4.18,4.18,0,0,0,.76-4.38"/></g><path class="cls-13" d="M225.84,116.72v-1.08c-.7-1.15-1.35-2.2-2.11-1.61h0l-.1.09c-.61.59-.73,2-.34,3.27l.06.22a.64.64,0,0,0,0,.07l0,.14v.08l0,.13v.06l0,.15v0c0,.16,0,.32.07.46v0s0,.07,0,.11v0s0,.06,0,.09v.06s0,.06,0,.08,0,0,0,.06a.5.5,0,0,0,0,.13l0,.08,0,.07,0,.07a.21.21,0,0,0,0,.06.25.25,0,0,0,0,.07.21.21,0,0,0,0,.06l0,0h0a3.08,3.08,0,0,0,.35.39c.68.59,1.65.91,2.12.53A12.94,12.94,0,0,1,225.84,116.72Zm-1,.11c-.26-.63-.31-1.3-.92-.75-.19.18-.6-.06.17-.83s.86,1.07,1.43,2.77A6,6,0,0,1,224.8,116.83Z"/><path class="cls-25" d="M224.79,118.55c-.06-.27-.11-.64-.11-.64s-.64,1,0,1.38c0,0,.46.37.53.08S224.86,118.81,224.79,118.55Z"/><path class="cls-13" d="M224.05,115.25c-.77.77-.36,1-.17.83.61-.55.66.12.92.75a6,6,0,0,0,.68,1.19C224.91,116.32,224.82,114.47,224.05,115.25Z"/><path class="cls-26" d="M224.05,115.25c-.77.77-.36,1-.17.83.61-.55.66.12.92.75a6,6,0,0,0,.68,1.19C224.91,116.32,224.82,114.47,224.05,115.25Z"/><path id="Element-2" data-name="Element" class="cls-27" d="M235.25,115.37a4.17,4.17,0,0,0,4.27.7c1.8-.53,3.08.4,2.44,2.07s-1.89.56-3.31.39a4.17,4.17,0,0,1-3.09-1.56C234.74,115.69,235.25,115.37,235.25,115.37Z"/><path id="Element-3" data-name="Element" class="cls-28" d="M233.08,115.05a4.18,4.18,0,0,1-3.78,2.11c-1.87.11-2.76,1.42-1.58,2.78s2-.12,3.24-.77a4.1,4.1,0,0,0,2.37-2.52C233.67,115.17,233.08,115.05,233.08,115.05Z"/><path id="Element-4" data-name="Element" class="cls-29" d="M235.06,115.28c.4,1.46.38,1.7.83,2s.58.59.61.84-.31.58-.55.74-.32-.09-.7-.06-.47.17-.75.16a1.49,1.49,0,0,1-.8-.22c-.14-.13-.1-.16-.46-.08s-.63.23-.84,0a1,1,0,0,1,0-1,3.8,3.8,0,0,1,.42-.56,7.64,7.64,0,0,0,.54-1.33c.17-.4,1-2.49,1.52-1.86A7.94,7.94,0,0,1,235.06,115.28Z"/><path class="cls-30" d="M246.48,102.44c-.93-1.44-6-4.09-15.42-2.25-4.47.88-5.09-4.32-5.09-4.32s-4.24,6.39-1.75,10.4a3.52,3.52,0,0,0-.8,2.1,44.58,44.58,0,0,0,.5,6.24s2.54-.18,2.13,3.21l1.64-9.07a24.06,24.06,0,0,0,15,0l.45,8.59s.53-2.76,2.35-2.32C245.45,115,247.4,103.87,246.48,102.44Z"/><path class="cls-31" d="M240.4,106.09l-.59.39a10,10,0,0,1-1.74.86,10.9,10.9,0,0,1-6.37.41,9.57,9.57,0,0,1-5.46-3.41,5.28,5.28,0,0,1-.86-1.8,3.29,3.29,0,0,1-.1-.53l0-.19a4.44,4.44,0,0,0,.22.68,5.69,5.69,0,0,0,1,1.61,10.66,10.66,0,0,0,5.35,2.93A12.81,12.81,0,0,0,238,107a11,11,0,0,0,1.79-.61Z"/><path class="cls-31" d="M240.44,104.4s-.67.29-1.78.66a10.91,10.91,0,0,1-4.59.62,8.5,8.5,0,0,1-4.25-1.91,19.16,19.16,0,0,1-1.46-1.27l1.65,1a10.84,10.84,0,0,0,4.14,1.49,16.72,16.72,0,0,0,4.42-.24Z"/><path class="cls-31" d="M245.22,105.8l-.11-.25a6.69,6.69,0,0,0-.33-.65,7.88,7.88,0,0,0-1.41-1.77,7.64,7.64,0,0,0-1.83-1.3,5.47,5.47,0,0,0-.65-.28l-.25-.1.26,0a3.53,3.53,0,0,1,.74,0,4.23,4.23,0,0,1,2.21,1.11,4.44,4.44,0,0,1,1.26,2.18,3.74,3.74,0,0,1,.11.75Z"/><path class="cls-31" d="M244.06,108.17a3.53,3.53,0,0,0,0-.49,6.42,6.42,0,0,0-.21-1,5.31,5.31,0,0,0-.34-1,3.81,3.81,0,0,0-.23-.43,1.26,1.26,0,0,1,.49.17,1.74,1.74,0,0,1,.63,2.3A1.19,1.19,0,0,1,244.06,108.17Z"/><g class="cls-20"><path class="cls-32" d="M225,114.38s12.12.2,18.41-6c0,0-16.37-3.41-17.63-3.54C225.78,104.88,226.6,114.11,225,114.38Z"/></g><path class="cls-33" d="M231.36,121.8l6.09.14a3.27,3.27,0,0,1-3.39,2.36A3.09,3.09,0,0,1,231.36,121.8Z"/><path class="cls-34" d="M231.36,121.79q.76,0,1.53-.06h1.52l.76,0,.76.06.76,0,.76,0h.06V122a3.71,3.71,0,0,1-.43,1,4.48,4.48,0,0,1-.32.44,1.62,1.62,0,0,1-.18.19,1.18,1.18,0,0,1-.21.18,1.84,1.84,0,0,1-.22.17l-.23.14a1.36,1.36,0,0,1-.25.11l-.25.11a5.11,5.11,0,0,1-.53.13l-.27,0a2.45,2.45,0,0,1-.27,0h-.27l-.29,0a2.49,2.49,0,0,1-.53-.16l-.25-.11-.24-.14-.22-.16-.11-.09-.1-.09a3.52,3.52,0,0,1-.36-.41l-.15-.22c0-.08-.08-.16-.13-.24a5.16,5.16,0,0,1-.21-.49c0-.17-.09-.34-.13-.51v0Z"/><path class="cls-30" d="M242.84,114a.52.52,0,0,0-.38-.46,10.9,10.9,0,0,0-6.22-.56c-.1,0-1,.1-1,.1a6.7,6.7,0,0,1-1.64-.12,12.69,12.69,0,0,0-7.18-.31l-.14,1.29s.55.32.7,1.51c0,0,.22,1.6,2.43,1.74,0,0,3,.55,3.78-1.42l.66-1.53s.18-.58.64-.54c0,0,.76-.19.89,1.43,0,0,0,2.52,2.95,2.58,0,0,2.68.36,3.32-1.12s.73-1.56.87-1.52a1.11,1.11,0,0,0,.31,0l.17-1Zm-10.15,2s-.47,1.38-3.58,1c0,0-2.76.23-1.91-3.75,0,0,1.79-1.4,5.3-.18C232.5,113,234.08,113.64,232.69,116Zm3.73-2.73c3.65-.73,5.39.86,5.39.86.21,3.69-2.58,3.49-2.58,3.49-3-.08-3.4-1.46-3.4-1.46C234.77,113.63,236.42,113.24,236.42,113.24Z"/><polygon class="cls-13" points="270.3 152.7 269.84 147.94 270.89 142.08 272.38 142.34 272.41 146.97 279.18 141.05 280.38 141.66 281.66 141.21 282.73 142.25 281.07 145.15 281.81 146.08 276.46 153.06 273.12 154.51 272.17 156.97 269.02 155.09 270.3 152.7"/><path class="cls-35" d="M247.7,133.81a11.45,11.45,0,0,1,6.07,7c1.32,5,6,19.9,6.94,20.23s7.59-10.57,7.59-10.57l7.6,5.29s-6.94,16.72-15.19,17.67-13-19.73-13-19.73Z"/><polyline class="cls-36" points="212.47 162.34 224.93 170.31 237.3 153.91 224.14 145.29 212.47 162.34"/><path class="cls-13" d="M223.41,153.49s1-3.12,0-4.75l1.16-.76,1.56,2.94s1.33-2.94.84-3.46l-.72-.71s1.81-.44,2.3.24l1.17.12.82.86,1.17.29,1.21,1.88-2.44,4.44-4.4,4.16-4-4.19Z"/><path class="cls-14" d="M206.36,169.73c8.59,9.91,21.3-10.74,21.3-10.74l-5-5.34s-8.17,9.49-8.83,8.16S219,149.25,219,149.25l.58-14.41s-21.76,25-13.18,34.89"/><path class="cls-37" d="M384.86,49.65a.67.67,0,0,1-.85-.41L383.24,47a.67.67,0,0,1,1.27-.44l.77,2.23A.68.68,0,0,1,384.86,49.65Z"/><path class="cls-37" d="M385.61,48.14l-2.26.78a.66.66,0,1,1-.44-1.25l2.26-.78a.66.66,0,1,1,.44,1.25Z"/><path class="cls-37" d="M302.7,46.82a.67.67,0,0,1-.67-.67V43.8a.68.68,0,0,1,1.35,0v2.35A.67.67,0,0,1,302.7,46.82Z"/><path class="cls-37" d="M303.9,45.64h-2.39a.67.67,0,1,1,0-1.33h2.39a.67.67,0,1,1,0,1.33Z"/><path class="cls-37" d="M377.88,41.79a.67.67,0,0,1-.85-.4l-.77-2.23a.67.67,0,0,1,.41-.85.67.67,0,0,1,.86.41l.77,2.22A.67.67,0,0,1,377.88,41.79Z"/><path class="cls-37" d="M378.63,40.29l-2.26.78a.68.68,0,0,1-.86-.41.66.66,0,0,1,.42-.84l2.26-.79a.67.67,0,0,1,.85.41A.67.67,0,0,1,378.63,40.29Z"/><path class="cls-37" d="M288.92,96.4a.66.66,0,0,1-.67-.66V93.38a.67.67,0,0,1,1.34,0v2.36A.66.66,0,0,1,288.92,96.4Z"/><path class="cls-37" d="M290.11,95.22h-2.39a.66.66,0,1,1,0-1.32h2.39a.66.66,0,1,1,0,1.32Z"/><path class="cls-37" d="M287.72,83.3a.67.67,0,0,1-.67-.66V80.28a.67.67,0,0,1,1.34,0v2.36A.67.67,0,0,1,287.72,83.3Z"/><path class="cls-37" d="M288.92,82.12h-2.39a.66.66,0,1,1,0-1.32h2.39a.66.66,0,1,1,0,1.32Z"/><path class="cls-38" d="M367.85,76a2.52,2.52,0,0,1,1.91.08,2,2,0,0,0,.93-2,2,2,0,0,0-2-1.48c-1.81,0-2.22,2.48-.85,3.4C368,75.94,367.68,75.88,367.85,76Z"/><path class="cls-37" d="M309.29,77.29c.37,0,.66-.24,1-.23l.34-.14a1.62,1.62,0,0,0,.58-2.39,2.08,2.08,0,0,0-2.69-.54C307.3,74.74,307.71,77.29,309.29,77.29Z"/><path class="cls-39" d="M338.79,55c2.09.41,2.87-2.88,1-3.63a1.79,1.79,0,0,0-2.53,1.28A1.92,1.92,0,0,0,338.79,55Z"/><path class="cls-39" d="M320.08,61.26a1.81,1.81,0,0,0,2.19-1.85,1.73,1.73,0,0,0-.84-1.61,1.84,1.84,0,0,0-2.62,1.09,1.74,1.74,0,0,0,1.27,2.37Z"/><path class="cls-39" d="M357.19,60.94a1.81,1.81,0,0,0,2.23-1.72,1.78,1.78,0,0,0-3.46-.8,1.89,1.89,0,0,0,1.23,2.52Z"/><path class="cls-40" d="M281.33,59.06l-8.94,85.07h0s1.79-.16,1.78-.12c-.05.47,5.77,5.89.57,1.57l-.26,1.54a6.08,6.08,0,0,0,5.14,2l2.31-1.79c.71-.11,10.37-.4,10.64-.8h0l-9.06-.19,48.08-67.7Z"/></g></g></svg>