<svg xmlns="http://www.w3.org/2000/svg" xmlns:xlink="http://www.w3.org/1999/xlink" viewBox="0 0 1910 500"><defs><style>.cls-1{fill:none;}.cls-2{isolation:isolate;}.cls-3{fill:#212c41;}.cls-4{fill:#fff;}.cls-5{clip-path:url(#clip-path);}.cls-6{fill:#5b70b6;}.cls-6,.cls-7{opacity:0.29;mix-blend-mode:multiply;}.cls-7{fill:url(#linear-gradient);}.cls-8{fill:url(#linear-gradient-2);}.cls-9{fill:#d99393;}.cls-10{fill:url(#linear-gradient-3);}.cls-11,.cls-26{fill:#010101;}.cls-11{opacity:0.2;}.cls-12{fill:url(#linear-gradient-4);}.cls-13{fill:url(#linear-gradient-5);}.cls-14{fill:#8a8e9b;}.cls-15{fill:url(#linear-gradient-6);}.cls-16{fill:url(#linear-gradient-7);}.cls-17{fill:#f8acad;}.cls-18{fill:url(#linear-gradient-8);}.cls-19{fill:url(#linear-gradient-9);}.cls-20{fill:url(#linear-gradient-10);}.cls-21{fill:#fee7da;}.cls-22{fill:url(#linear-gradient-11);}.cls-23{fill:#0d1829;}.cls-24{fill:#181546;}.cls-25{fill:#402c2d;}.cls-26{opacity:0.27;}.cls-27{fill:url(#linear-gradient-12);}.cls-28{fill:url(#linear-gradient-13);}.cls-29{fill:url(#linear-gradient-14);}.cls-30{fill:url(#linear-gradient-15);}.cls-31{fill:url(#linear-gradient-16);}.cls-32{fill:url(#linear-gradient-17);}.cls-33{fill:url(#linear-gradient-18);}.cls-34{fill:url(#linear-gradient-19);}.cls-35{fill:url(#linear-gradient-20);}.cls-36{fill:url(#linear-gradient-21);}.cls-37{fill:url(#linear-gradient-22);}.cls-38{fill:#a0a9d1;}.cls-39{fill:url(#linear-gradient-23);}.cls-40{fill:url(#linear-gradient-24);}.cls-41{fill:url(#linear-gradient-25);}.cls-42{fill:url(#linear-gradient-26);}</style><clipPath id="clip-path"><polygon id="SVGID" class="cls-1" points="1910 0 878 0 878 500 1910 500 1910 0 1910 0"/></clipPath><linearGradient id="linear-gradient" x1="1426.98" y1="197.25" x2="1890.58" y2="197.25" gradientUnits="userSpaceOnUse"><stop offset="0" stop-color="#412970"/><stop offset="1" stop-color="#7b5ba6"/></linearGradient><linearGradient id="linear-gradient-2" x1="1665.44" y1="403.23" x2="1665.44" y2="486.04" gradientUnits="userSpaceOnUse"><stop offset="0" stop-color="#fee7da"/><stop offset="0.32" stop-color="#fee4d8"/><stop offset="0.55" stop-color="#fddbd1"/><stop offset="0.75" stop-color="#fbcbc5"/><stop offset="0.94" stop-color="#f9b5b4"/><stop offset="1" stop-color="#f8acad"/></linearGradient><linearGradient id="linear-gradient-3" x1="1744.26" y1="408.62" x2="1744.26" y2="491.43" xlink:href="#linear-gradient-2"/><linearGradient id="linear-gradient-4" x1="1421.56" y1="487.44" x2="1421.56" y2="431.84" xlink:href="#linear-gradient-2"/><linearGradient id="linear-gradient-5" x1="1479.5" y1="487.44" x2="1479.5" y2="431.84" xlink:href="#linear-gradient-2"/><linearGradient id="linear-gradient-6" x1="1438.59" y1="350.89" x2="1490.05" y2="350.89" gradientUnits="userSpaceOnUse"><stop offset="0" stop-color="#19181d"/><stop offset="1" stop-color="#404152"/></linearGradient><linearGradient id="linear-gradient-7" x1="1438.59" y1="332.7" x2="1484.51" y2="332.7" xlink:href="#linear-gradient-6"/><linearGradient id="linear-gradient-8" x1="1377.05" y1="196.21" x2="1418.3" y2="196.21" xlink:href="#linear-gradient-2"/><linearGradient id="linear-gradient-9" x1="1352.19" y1="202.41" x2="1401.92" y2="202.41" xlink:href="#linear-gradient-2"/><linearGradient id="linear-gradient-10" x1="1389.82" y1="144.31" x2="1447.71" y2="144.31" xlink:href="#linear-gradient-2"/><linearGradient id="linear-gradient-11" x1="1422.87" y1="353.35" x2="1474.5" y2="353.35" xlink:href="#linear-gradient-6"/><linearGradient id="linear-gradient-12" x1="1454.09" y1="317.19" x2="1454.09" y2="119.04" xlink:href="#linear-gradient"/><linearGradient id="linear-gradient-13" x1="1373.41" y1="207.76" x2="1446.32" y2="207.76" xlink:href="#linear-gradient"/><linearGradient id="linear-gradient-14" x1="1574.07" y1="250.08" x2="1506.27" y2="303.26" gradientTransform="translate(-11.62 328.46) rotate(-17.47)" xlink:href="#linear-gradient-2"/><linearGradient id="linear-gradient-15" x1="1534.59" y1="154.81" x2="1475.9" y2="141.99" gradientTransform="matrix(1.15, -0.06, 0.1, 1, -178.72, 65.35)" xlink:href="#linear-gradient-2"/><linearGradient id="linear-gradient-16" x1="1587.93" y1="239.69" x2="1570.3" y2="258.44" gradientTransform="translate(-11.62 328.46) rotate(-17.47)" xlink:href="#linear-gradient-2"/><linearGradient id="linear-gradient-17" x1="1566.36" y1="202.83" x2="1545.66" y2="224.85" gradientTransform="matrix(0.97, -0.25, 0.25, 0.97, -17.32, 274.2)" xlink:href="#linear-gradient-2"/><linearGradient id="linear-gradient-18" x1="1568.92" y1="244.24" x2="1559.97" y2="255.98" gradientTransform="translate(-11.62 328.46) rotate(-17.47)" xlink:href="#linear-gradient-2"/><linearGradient id="linear-gradient-19" x1="1188.6" y1="695.76" x2="1179.52" y2="707.67" gradientTransform="translate(763.45 1258.25) rotate(-84.94)" xlink:href="#linear-gradient-2"/><linearGradient id="linear-gradient-20" x1="1540.21" y1="257.11" x2="1515.14" y2="239.72" gradientTransform="translate(-11.62 328.46) rotate(-17.47)" xlink:href="#linear-gradient-2"/><linearGradient id="linear-gradient-21" x1="1526.35" y1="262.55" x2="1520.1" y2="261.18" gradientTransform="translate(-11.62 328.46) rotate(-17.47)" xlink:href="#linear-gradient-2"/><linearGradient id="linear-gradient-22" x1="1669.94" y1="65.76" x2="1564.41" y2="-5.84" gradientTransform="matrix(1, 0.05, -0.05, 1, 9.03, -50.63)" xlink:href="#linear-gradient-2"/><linearGradient id="linear-gradient-23" x1="1833.25" y1="-47.9" x2="1850.71" y2="-47.9" gradientTransform="translate(42.21 -173.76) rotate(8.76)" xlink:href="#linear-gradient-2"/><linearGradient id="linear-gradient-24" x1="1743.26" y1="-58.89" x2="1743.26" y2="-37.75" gradientTransform="translate(42.21 -173.76) rotate(8.76)" xlink:href="#linear-gradient-2"/><linearGradient id="linear-gradient-25" x1="1771.16" y1="-57.63" x2="1771.16" y2="-39.02" gradientTransform="translate(42.21 -173.76) rotate(8.76)" xlink:href="#linear-gradient-2"/><linearGradient id="linear-gradient-26" x1="1794.97" y1="-56.07" x2="1794.97" y2="-40.52" gradientTransform="translate(42.21 -173.76) rotate(8.76)" xlink:href="#linear-gradient-2"/></defs><g class="cls-2"><g id="Layer_1" data-name="Layer 1"><rect class="cls-3" width="1909.21" height="500"/><path class="cls-4" d="M0,0V319.06c175.9,80.11,402.89,155.81,632.75,155.81,377.23,0,870.34-235.42,1276.46-342.54V0Z"/><g class="cls-5"><path class="cls-6" d="M1489.08,79c14.45-6.15,24.42-19.1,28.61-32.06s1-18.42-4.19-17.73-4.79,15.43-14.3,24.87C1484.61,68.57,1472,63,1469.55,71.51S1475.48,84.81,1489.08,79Z"/><path class="cls-7" d="M1427,122.6s17.53-15.67,42.15-10.15,42.52,27.07,79,22,54.16-6.23,74.89,8.43,17.72,48.22,50.62,43.72,63.21-24.42,103.52-18.21,103.81,37.37,112.18,65.78-27.21,59.8-56.52,45.47-47.73-53.39-87.76-61.45c-50.73-10.2-90.43,16.42-111.93,3.53-49.44-29.63-34.1-69.14-60.43-59.36-40.06,14.88-72.36,7.78-93.2-17.1s-34.53-21.71-52.36-12.56Z"/><path class="cls-8" d="M1665.33,382.14c18.49,0,15.87,26.14,15.87,26.14s17.27,9,5.41,31c0,0,18.83,13-5.93,34.45-3.49,13.13-25.9,21.28-31-1.57,0,0-22.42-21.29-6.72-28.34,0,0-10.29-26.54,5.41-34.22C1648.41,409.64,1647.88,382.14,1665.33,382.14Z"/><rect class="cls-9" x="1663.11" y="405.21" width="4.43" height="102.32"/><rect class="cls-9" x="1658.57" y="398.46" width="4.43" height="17.24" transform="translate(34.22 934.53) rotate(-31.74)"/><rect class="cls-9" x="1662.01" y="417.32" width="19.89" height="4.43" transform="translate(245.57 1387.45) rotate(-48.25)"/><rect class="cls-9" x="1654.82" y="416.76" width="4.43" height="27.54" transform="translate(74.43 1083.59) rotate(-36.99)"/><rect class="cls-9" x="1662.47" y="446.73" width="22.11" height="4.44" transform="translate(130.98 1238.13) rotate(-42.11)"/><rect class="cls-9" x="1654.82" y="447.3" width="4.43" height="26.33" transform="translate(79.5 1145.42) rotate(-39)"/><path class="cls-10" d="M1744.14,387.54c18.49,0,15.87,26.13,15.87,26.13s17.27,9,5.41,31c0,0,18.84,13-5.93,34.45-3.49,13.13-25.89,21.29-31-1.57,0,0-22.43-21.29-6.73-28.34,0,0-10.29-26.54,5.41-34.22C1727.22,415,1726.7,387.54,1744.14,387.54Z"/><rect class="cls-9" x="1741.92" y="410.6" width="4.43" height="102.32"/><rect class="cls-9" x="1737.39" y="403.85" width="4.43" height="17.25" transform="matrix(0.85, -0.53, 0.53, 0.85, 43.09, 976.57)"/><rect class="cls-9" x="1740.82" y="422.71" width="19.9" height="4.43" transform="translate(267.88 1448.06) rotate(-48.25)"/><rect class="cls-9" x="1733.64" y="422.15" width="4.43" height="27.54" transform="translate(87.04 1132.07) rotate(-36.99)"/><rect class="cls-9" x="1741.28" y="452.13" width="22.11" height="4.44" transform="translate(147.7 1292.35) rotate(-42.11)"/><rect class="cls-9" x="1733.64" y="452.69" width="4.43" height="26.33" transform="translate(93.67 1196.22) rotate(-39)"/><path class="cls-11" d="M1517.34,474.58c0,4.33-30.95,7.84-69.14,7.84s-69.13-3.51-69.13-7.84,31-7.85,69.13-7.85S1517.34,470.25,1517.34,474.58Z"/><path class="cls-12" d="M1427.84,437.55v17.32l-10.66,8.3-20,6.62-2.74,7.46h54.26s-.4-9.29-6.59-21.68v-18Z"/><path class="cls-13" d="M1470.94,431.07l7.34,18-6.19,12.11-15.41,6.48-2.59,6.9h29.23l21.6-17.88a52.84,52.84,0,0,0-14.26-11l-4.6-15.91Z"/><path class="cls-14" d="M1397.17,469.79l-2.74,7.46h54.26s-.4-9.29-6.59-21.68l-14.26-.7-10.66,8.3Z"/><path class="cls-15" d="M1444.35,266.05h38.79l-18.43,87.3s17.66,12.2,25.34,80.16l-20,2.21-31.44-77.3Z"/><path class="cls-16" d="M1444.35,266.05l-5.76,92.37L1450,386.57l34.47,12.77c-8.46-38.12-19.8-46-19.8-46l18.43-87.3Z"/><polygon class="cls-17" points="1412.1 212.44 1406.6 209.82 1411.77 203.55 1414.45 207.07 1412.1 212.44"/><path class="cls-18" d="M1377.05,194.15l3.17-6.76s2.5-10.51,20.07-10.13l18,30.5s-8.89-1.22-16.38,7.42Z"/><path class="cls-19" d="M1380.22,187.39l21.7,27.79s-17.64-5.78-25.91,3l-23.82-22.57A29.62,29.62,0,0,1,1380.22,187.39Z"/><path class="cls-20" d="M1398.27,140.93l2.11,2.16a28.71,28.71,0,0,1,3.27,5.16c.57,1.69,0,4.88,0,4.88l4.51-.47s6.14,8.17,8.16,9,8.26-3.09,10.46-3.28,6.44,4.69,6.44,4.69l14.49-8.82L1437.34,142l-5.28-16.42L1396,127.41l-6.15,10.33Z"/><path class="cls-21" d="M1436.65,139.79s-6.78,1.43-6.89,3.3c-.59,9.75-8.87,17.57-8.87,17.57,2.27-.95,4.68-2.17,5.89-2.27,2.21-.19,6.44,4.69,6.44,4.69l14.49-8.82L1437.34,142Z"/><path class="cls-22" d="M1427.55,263.52l-4.68,86.17,2.38,93.49h21.07s8.4-65.61,0-86.45l28.18-93.21Z"/><polygon class="cls-11" points="1473.73 266.05 1474.5 263.52 1427.55 263.52 1427.14 271.02 1479.49 283.34 1483.14 266.05 1473.73 266.05"/><path class="cls-17" d="M1379.71,217.18s-6.08-10.29-9.88-14.83c0,0-8.07-1.78-8.07-.38s7.34,2,5.52,4.69-11.18-7.15-11.18-7.15-3.94,13.92,2.11,17.67,20.26,7.51,20.26,7.51Z"/><path class="cls-17" d="M1415.07,201.94s.07-3.4-3.36-8.16c-3-4.22-11.42-4.51-11.42-4.51s2.88,4.69,6.43,6.34c0,0,1.59,9.55,5.93,10.71C1413.45,206.53,1414.91,203.39,1415.07,201.94Z"/><polygon class="cls-14" points="1409.62 211.8 1415.07 201.94 1426.98 207.76 1420.64 219.97 1409.62 211.8"/><path class="cls-23" d="M1424.46,115.68s6.11-22.53,30.71-24.91c40.72-3.93,53-12.5,73.68-49S1585.4-.4,1604.2-25.72s12-56.28,77.25-73.41c51.14-13.43,73.6-54.39,55.66-91.15-14.78-30.27-95.47-38.44-114.86-83.42C1588-353.28,1660-394.8,1719.19-392S1884-351,1926.5-291s46.33,301.13,84.14,376.53,33.18,150.74,4.8,171.57-79.79,55.6-138.14,14.89-90.86-64.28-123.44-69.63c-41.34-6.77-90.55,3.59-111.46-3.27s-13-31-38.2-48.11c-17-11.55-42.41-2.46-66.32-1.58-43.39,1.58-53.1-41.63-106.34-23.9Z"/><path class="cls-24" d="M1584.67,163.08c11.21-4.27,20.58,11.58,23,20.79s6.28,18.44,17.79,27.13,8.38,20.13,1.4,22.08-19.19-2.63-38-17.9S1565.83,170.26,1584.67,163.08Z"/><path class="cls-24" d="M1785.79,237.19c8.51-8.33,23.61,2.51,29.64,10s13.33,14.41,27.45,17.83,15.94,15.14,10.36,19.67-18.65,5.14-42.18-1.43S1771.5,251.17,1785.79,237.19Z"/><path class="cls-24" d="M1676.77,232.65a11.17,11.17,0,1,1-11.17-10.92A11,11,0,0,1,1676.77,232.65Z"/><path class="cls-24" d="M1695,215.48a4.58,4.58,0,1,1-4.58-4.48A4.54,4.54,0,0,1,1695,215.48Z"/><path class="cls-24" d="M1489.08,72.34c14.45-6.16,24.42-19.1,28.61-32.06s1-18.42-4.19-17.74-4.79,15.44-14.3,24.87c-14.59,14.49-27.21,8.9-29.65,17.43S1475.48,78.14,1489.08,72.34Z"/><path class="cls-24" d="M1534.61,13.55a6.15,6.15,0,1,1-6.15-6A6.08,6.08,0,0,1,1534.61,13.55Z"/><path class="cls-25" d="M1397.41,134.55s8.73,1.59,14.3,1.22,6.15,6.57,11.33,7.32c0,0-2.11-5.82,0-8.82a3.64,3.64,0,0,1,6.72,2.25v6.57s5,3.19,8.26,0-.39-5.27,0-10.52,1-23.65-19.78-27.59-25.35,12.49-26.31,19.76-5,10.46-4.6,14.22,7.87,6.57,13.05,4.13Z"/><path class="cls-26" d="M1390.84,136.72a5.58,5.58,0,0,0,.67,6.42,11.56,11.56,0,0,0,8.87,0l-3-8.54S1392.54,133.78,1390.84,136.72Z"/><path class="cls-27" d="M1422.89,257.64v1.55c0,.34,0,.69,0,1,0,.79,0,1.53,0,2.25,0,.39,0,.75,0,1.12s0,.75,0,1.11,0,.62,0,.92,0,.71,0,1.05,0,.48,0,.69c0,.53,0,1,0,1.41,0,.17,0,.29,0,.44s0,.38,0,.54v.86a1.22,1.22,0,0,0,0,.21V271h62.26S1482,252.4,1480,243c-.12-.58-.25-1.25-.37-2-.08-.43-.15-.94-.22-1.43-1.84-12.13-3.88-39.51-7.91-55-4.46-17.18-13.82-23.94-13.82-23.94l-5-9.57c-24.19,4.79-21.89,17.18-21.89,17.18-5.94,9.09-7.47,45.89-7.78,72.87h0c0,.18,0,.36,0,.53,0,.63,0,1.23,0,1.84s0,1.16,0,1.72,0,1.21,0,1.79,0,1.06,0,1.58V252c0,.33,0,.68,0,1v3C1422.88,256.57,1422.88,257.11,1422.89,257.64Z"/><path class="cls-11" d="M1435.36,195.63l-11.78,20.84c-1.16,26.89-.54,54.51-.54,54.51,21.87-25.11,23.19-83,23.19-83Z"/><path class="cls-28" d="M1377.58,214l36.87,7.6s9.36-30.55,11.66-38.3,6.39-14.22,13.28-12.67,8.9,14.93,4.87,28.58-11,44.36-20.16,45.9-50.69-19.85-50.69-19.85Z"/><path class="cls-14" d="M1472.09,461.2l-15.41,6.48-2.59,6.9h29.23l21.6-17.88a52.84,52.84,0,0,0-14.26-11l-12.38,3.38Z"/><path class="cls-29" d="M1585,108.46c6.53,20.29-5,41.92-25.76,48.3s-42.87-4.88-49.4-25.18,5-41.91,25.75-48.3S1578.5,88.17,1585,108.46Z"/><path class="cls-21" d="M1584.69,107.4c6.15,19.11-4.71,39.48-24.26,45.5s-40.38-4.61-46.53-23.72,4.71-39.49,24.26-45.5S1578.54,88.28,1584.69,107.4Z"/><path class="cls-30" d="M1582.54,121c-.73,8.53-7.16,15-14.36,14.37s-12.45-8-11.73-16.49,7.16-15,14.36-14.37S1583.27,112.51,1582.54,121Z"/><path class="cls-31" d="M1569.61,93.69c2.75,2.07,3.87,5.15,2.51,6.87s-4.68,1.43-7.43-.65-3.87-5.15-2.51-6.87S1566.86,91.61,1569.61,93.69Z"/><path class="cls-32" d="M1544.86,93.62c.55,2.09-1.44,4.4-4.45,5.17s-5.9-.31-6.46-2.4,1.44-4.41,4.45-5.17S1544.3,91.53,1544.86,93.62Z"/><path class="cls-33" d="M1555.88,97.42c1,.46,1.67,1.23,1.43,1.72s-1.24.51-2.27,0-1.66-1.23-1.43-1.72S1554.86,97,1555.88,97.42Z"/><path class="cls-34" d="M1566.91,140.64c.83-.75,1.8-1,2.17-.63s0,1.32-.82,2.07-1.8,1-2.17.63S1566.08,141.39,1566.91,140.64Z"/><path class="cls-35" d="M1525.53,108.32c-.73,2.68-2.68,4.51-4.36,4.07s-2.44-3-1.71-5.65,2.68-4.5,4.36-4.07S1526.26,105.64,1525.53,108.32Z"/><path class="cls-17" d="M1579.53,97.67a38.08,38.08,0,0,1,2.47,3.84c16-3.37,26.8-4.19,27.63-1.61,1.38,4.29-25.46,16.37-60,27s-63.59,15.74-65,11.45c-.83-2.58,8.53-8,23.6-14.16a36.16,36.16,0,0,1-.22-4.53c-23.18,9.33-38.12,18.25-36.67,22.78,2.11,6.54,37.74,1.42,79.57-11.46s74-28.61,71.94-35.16C1621.46,91.29,1604,92.34,1579.53,97.67Z"/><path class="cls-36" d="M1521.49,120.79c.13.9-.29,1.7-1,1.8s-1.3-.56-1.44-1.46.29-1.71,1-1.8S1521.35,119.89,1521.49,120.79Z"/><path class="cls-4" d="M1658.76,156.23a4.32,4.32,0,0,1-4.18-2.5l-2.92-6.48.41,7.07a4.21,4.21,0,0,1-2.56,4.09l-6.62,2.86,7.22-.4a4.33,4.33,0,0,1,4.19,2.5l2.92,6.48-.41-7.07a4.21,4.21,0,0,1,2.56-4.09l6.62-2.86Z"/><path class="cls-4" d="M1833.41,170.72a5.23,5.23,0,0,1-3.6-4.78l-.25-8.77-2.91,8.29a5.32,5.32,0,0,1-4.89,3.52l-9,.25,8.47,2.85a5.21,5.21,0,0,1,3.6,4.78l.26,8.76,2.91-8.29a5.31,5.31,0,0,1,4.89-3.52l9-.25Z"/><path class="cls-4" d="M1762.7,137.17a5.24,5.24,0,0,1-3.6-4.78l-.25-8.76-2.91,8.29a5.33,5.33,0,0,1-4.89,3.51l-9,.25,8.48,2.85a5.21,5.21,0,0,1,3.59,4.78l.26,8.76,2.91-8.29a5.32,5.32,0,0,1,4.89-3.52l9-.25Z"/><path class="cls-4" d="M1880.38,222.53a5.21,5.21,0,0,1-3.6-4.78l-.26-8.76-2.91,8.29a5.34,5.34,0,0,1-4.89,3.52l-9,.25,8.48,2.84a5.23,5.23,0,0,1,3.6,4.78l.25,8.76,2.91-8.29a5.33,5.33,0,0,1,4.89-3.51l9-.25Z"/><path class="cls-4" d="M1558.19,52.53a2.67,2.67,0,0,1-2.52-1.64L1554,46.83l.08,4.36a2.61,2.61,0,0,1-1.68,2.46l-4.16,1.6,4.47-.07a2.63,2.63,0,0,1,2.51,1.64l1.65,4.06-.08-4.36a2.58,2.58,0,0,1,1.68-2.46l4.15-1.61Z"/><path class="cls-4" d="M1716.82,157.08a2.31,2.31,0,0,1-2.36-1.1l-1.93-3.29.62,3.74a2.2,2.2,0,0,1-1.13,2.31l-3.36,1.88,3.83-.6a2.32,2.32,0,0,1,2.36,1.1l1.92,3.29-.61-3.74a2.21,2.21,0,0,1,1.12-2.31l3.36-1.88Z"/><path class="cls-4" d="M1882.09,139.54a2.33,2.33,0,0,1-2.37-1.1l-1.92-3.29.62,3.74a2.24,2.24,0,0,1-1.13,2.31l-3.36,1.88,3.82-.6a2.33,2.33,0,0,1,2.37,1.1l1.92,3.29-.62-3.74a2.23,2.23,0,0,1,1.13-2.31l3.36-1.88Z"/><path class="cls-4" d="M1733.5,91.78a2.31,2.31,0,0,1-2.2-1.39l-1.48-3.5.13,3.79a2.25,2.25,0,0,1-1.42,2.15L1725,94.28l3.87-.13a2.31,2.31,0,0,1,2.21,1.39l1.48,3.5-.13-3.79a2.25,2.25,0,0,1,1.42-2.15l3.57-1.45Z"/><path class="cls-4" d="M1883.48,14.1a2.31,2.31,0,0,1-2.2-1.39l-1.48-3.5.13,3.79a2.25,2.25,0,0,1-1.42,2.15l-3.58,1.45,3.87-.13a2.31,2.31,0,0,1,2.21,1.39l1.48,3.5-.13-3.79a2.25,2.25,0,0,1,1.42-2.15l3.57-1.45Z"/><path class="cls-3" d="M1655.75,105.11l6.73-7.19L1630.3,83l8.07,23.92a14.66,14.66,0,0,0,9.15,9.14l34.4,11.9-25.16-15.49A4.77,4.77,0,0,1,1655.75,105.11Z"/><path class="cls-3" d="M1680.72,73.72l-5.47,8.15-22.72-26.82,25.7,1.76a14.94,14.94,0,0,1,11.32,6.42L1709.8,92.9l-21.55-20A5,5,0,0,0,1680.72,73.72Z"/><path class="cls-37" d="M1620.67,24.61c-23.44-18.62-53-21.68-63.25-22.18a2.62,2.62,0,0,0-2.68,3.37c3,9.57,13.32,36.85,37.55,54.48,19.16,13.94,53.39,32.22,68.38,40a10.05,10.05,0,0,0,12.47-2.61l4.5-5.66a9.52,9.52,0,0,0-.48-12.46C1665.74,67.28,1639.2,39.34,1620.67,24.61Z"/><path class="cls-17" d="M1597.36,35.51A173.93,173.93,0,0,0,1610,17.4c-21.06-12.22-43.86-14.55-52.58-15a2.62,2.62,0,0,0-2.68,3.37C1557.31,14,1565.22,35,1582.51,52A175.63,175.63,0,0,0,1597.36,35.51Z"/><path class="cls-3" d="M1650.11,71.53l-10.25-3.69,6.18,8.8A37.89,37.89,0,0,0,1657.25,87l38.61,23.44L1663.13,79.6A38.25,38.25,0,0,0,1650.11,71.53Z"/><polygon class="cls-4" points="1713.74 134.34 1668.53 106.55 1674.43 104.44 1713.74 134.34"/><polygon class="cls-4" points="1723.96 121.49 1685.29 85.48 1684.65 91.59 1723.96 121.49"/><polygon class="cls-4" points="1740.21 144.16 1699.46 116.08 1702.35 112.45 1740.21 144.16"/><polygon class="cls-4" points="1789.62 -3.57 1691.57 -3.57 1685.6 7.63 1795.6 7.63 1789.62 -3.57"/><polygon class="cls-38" points="1787.13 0.09 1694.07 0.09 1692.47 3.38 1788.73 3.38 1787.13 0.09"/><rect class="cls-38" x="1685.6" y="7.63" width="110" height="4.41"/><polygon class="cls-39" points="1877.81 65.44 1860.58 62.84 1862.06 53.44 1879.29 56.03 1877.81 65.44"/><polygon class="cls-4" points="1794.34 62.04 1766.76 57.88 1771.07 30.54 1798.65 34.7 1794.34 62.04"/><polygon class="cls-40" points="1773.58 58.91 1766.76 57.88 1771.07 30.54 1777.89 31.57 1773.58 58.91"/><polygon class="cls-4" points="1818.14 63.95 1794.6 60.4 1798.39 36.34 1821.93 39.88 1818.14 63.95"/><polygon class="cls-41" points="1801.42 61.43 1794.6 60.4 1798.39 36.34 1805.22 37.37 1801.42 61.43"/><polygon class="cls-4" points="1863.26 68.72 1818.45 61.97 1821.62 41.86 1866.43 48.62 1863.26 68.72"/><polygon class="cls-42" points="1825.28 63 1818.45 61.97 1821.62 41.86 1828.45 42.89 1825.28 63"/><path class="cls-17" d="M1830.56,86.87h0a3,3,0,0,1-2.55-3.4l3.18-20.22,6,.91-3.18,20.22A3,3,0,0,1,1830.56,86.87Z"/><polygon class="cls-3" points="1845.91 69.81 1821.29 66.11 1822.73 57.01 1847.34 60.72 1845.91 69.81"/><polygon class="cls-3" points="1839.1 86.65 1822.49 84.15 1823.39 78.4 1840.01 80.91 1839.1 86.65"/><path class="cls-3" d="M1802.38,145.84h0a2,2,0,0,1-1.3-2.45l21.28-65a2,2,0,0,1,2.51-1.26h0a1.94,1.94,0,0,1,1.29,2.45l-21.28,65A2,2,0,0,1,1802.38,145.84Z"/><path class="cls-3" d="M1839.28,151.4h0a2,2,0,0,0,2-2L1841,81.22a2,2,0,0,0-2-1.94h0a2,2,0,0,0-2,2l.28,68.23A2,2,0,0,0,1839.28,151.4Z"/><path class="cls-4" d="M1640.08-10.09A15.33,15.33,0,0,1,1637.22-28a15.9,15.9,0,0,0-4.35,2.9A15.4,15.4,0,0,0,1632.7-3a16.26,16.26,0,0,0,22.63.18,15.51,15.51,0,0,0,3-4.2A16.23,16.23,0,0,1,1640.08-10.09Z"/></g></g></g></svg>